<svg xmlns="http://www.w3.org/2000/svg" width="64.66" height="58.15" viewBox="0 0 64.66 58.15">
  <metadata><?xpacket begin="﻿" id="W5M0MpCehiHzreSzNTczkc9d"?>
<x:xmpmeta xmlns:x="adobe:ns:meta/" x:xmptk="Adobe XMP Core 5.6-c142 79.160924, 2017/07/13-01:06:39        ">
   <rdf:RDF xmlns:rdf="http://www.w3.org/1999/02/22-rdf-syntax-ns#">
      <rdf:Description rdf:about=""/>
   </rdf:RDF>
</x:xmpmeta>
                                                                                                    
                                                                                                    
                                                                                                    
                                                                                                    
                                                                                                    
                                                                                                    
                                                                                                    
                                                                                                    
                                                                                                    
                                                                                                    
                                                                                                    
                                                                                                    
                                                                                                    
                                                                                                    
                                                                                                    
                                                                                                    
                                                                                                    
                                                                                                    
                                                                                                    
                                                                                                    
                           
<?xpacket end="w"?></metadata>
<defs>
    <style>
      .cls-1 {
        fill: #1a31ca;
        fill-rule: evenodd;
      }
    </style>
  </defs>
  <path id="Dirigimos_Icono" data-name="Dirigimos Icono" class="cls-1" d="M1054.89,2634.15l0.01,0.03a1.269,1.269,0,0,0,1.23.97,1.012,1.012,0,0,0,.29-0.04,1.259,1.259,0,0,0,.93-1.53l-0.01-.04a1.259,1.259,0,0,0-1.53-.93A1.276,1.276,0,0,0,1054.89,2634.15Zm-36.25,1.4a1.261,1.261,0,0,0-1.6.8,13.134,13.134,0,0,0-.67,4.13,12.864,12.864,0,0,0,6.24,11.1,1.173,1.173,0,0,0,.65.19,1.273,1.273,0,0,0,.65-2.36,10.359,10.359,0,0,1-5.01-8.93,10.678,10.678,0,0,1,.53-3.32A1.266,1.266,0,0,0,1018.64,2635.55Zm7-4.83a10.33,10.33,0,0,1,10.71,2.18,1.245,1.245,0,0,0,1.78-.05,1.277,1.277,0,0,0-.05-1.8,12.84,12.84,0,0,0-13.32-2.71A1.269,1.269,0,0,0,1025.64,2630.72Zm38.1,10.15h-9.5v-2.63a2.32,2.32,0,0,0-2.31-2.32h-1.69a21.515,21.515,0,0,0-24.84-16.68,1.278,1.278,0,0,0-1.02,1.48,1.261,1.261,0,0,0,1.47,1.02,18.965,18.965,0,0,1,21.8,14.18h-6.9a2.311,2.311,0,0,0-2.3,2.32v2.63h-9.5a1.272,1.272,0,0,0-1.27,1.27v7.79a4.55,4.55,0,0,0,1.22,3.09v6.51a18.665,18.665,0,0,1-13.04-5.57,19.108,19.108,0,0,1-5.17-17.29,1.266,1.266,0,1,0-2.48-.51,21.559,21.559,0,0,0,20.69,25.91v4.6a2.174,2.174,0,0,0,.02.36,26.583,26.583,0,0,1-22.73-39.46l4.26,4.3a1.249,1.249,0,0,0,.89.38h7.95l7.78,7.83a1.267,1.267,0,0,0,1.79,0,1.286,1.286,0,0,0,0-1.8l-7.79-7.83v-7.99a1.28,1.28,0,0,0-.37-0.9l-4.27-4.28a26.192,26.192,0,0,1,12.82-3.34,26.48,26.48,0,0,1,23.96,15.39,1.263,1.263,0,0,0,1.15.74,1.242,1.242,0,0,0,.53-0.12,1.274,1.274,0,0,0,.62-1.68,29.062,29.062,0,0,0-10.49-12.17,28.81,28.81,0,0,0-30.45-.68l-3.63-3.65a1.259,1.259,0,0,0-2.15.9v7.2h-7.18a1.268,1.268,0,0,0-.9,2.16l3.63,3.67a29.225,29.225,0,0,0,4.46,35.35,28.669,28.669,0,0,0,20.45,8.52h31.66a2.9,2.9,0,0,0,2.88-2.9v-13.65a4.531,4.531,0,0,0,1.21-3.09v-7.79A1.27,1.27,0,0,0,1063.74,2640.87Zm-52.43-25.14,7.24,7.26v4.92l-7.24-7.3v-4.88Zm-1.79,6.68,7.24,7.3h-4.89l-7.23-7.3h4.88Zm31.45,16.05h10.74v2.41h-10.74v-2.41Zm20.29,22.47h-8.29a1.27,1.27,0,0,0,0,2.54h8.29v3.2a0.356,0.356,0,0,1-.35.36h-29.15a0.355,0.355,0,0,1-.34-0.36v-12.28a4.772,4.772,0,0,0,.76.06h10.42a3.769,3.769,0,0,0,7.49-.01l10.41,0.01h0a4.772,4.772,0,0,0,.76-0.06v6.54ZM1045.1,2654v-2.23h2.49V2654A1.245,1.245,0,1,1,1045.1,2654Zm17.37-4.07a1.963,1.963,0,0,1-1.97,1.98h0l-10.39-.01v-1.16a1.507,1.507,0,0,0-1.5-1.51h-4.53a1.515,1.515,0,0,0-1.51,1.51v1.17h-10.39a1.976,1.976,0,0,1-1.97-1.98v-6.52h32.26v6.52Zm-15.69,11a1.267,1.267,0,0,0-.89.38,1.267,1.267,0,0,0,0,1.79,1.267,1.267,0,0,0,1.79,0,1.267,1.267,0,0,0,0-1.79A1.272,1.272,0,0,0,1046.78,2660.93Z" transform="translate(-1000.34 -2611.41)"/>
</svg>
