<svg xmlns="http://www.w3.org/2000/svg" width="64.625" height="65" viewBox="0 0 64.625 65">
  <metadata><?xpacket begin="﻿" id="W5M0MpCehiHzreSzNTczkc9d"?>
<x:xmpmeta xmlns:x="adobe:ns:meta/" x:xmptk="Adobe XMP Core 5.6-c142 79.160924, 2017/07/13-01:06:39        ">
   <rdf:RDF xmlns:rdf="http://www.w3.org/1999/02/22-rdf-syntax-ns#">
      <rdf:Description rdf:about=""/>
   </rdf:RDF>
</x:xmpmeta>
                                                                                                    
                                                                                                    
                                                                                                    
                                                                                                    
                                                                                                    
                                                                                                    
                                                                                                    
                                                                                                    
                                                                                                    
                                                                                                    
                                                                                                    
                                                                                                    
                                                                                                    
                                                                                                    
                                                                                                    
                                                                                                    
                                                                                                    
                                                                                                    
                                                                                                    
                                                                                                    
                           
<?xpacket end="w"?></metadata>
<defs>
    <style>
      .cls-1 {
        fill: #1a31ca;
        fill-rule: evenodd;
      }
    </style>
  </defs>
  <path id="Hablamos_Icono" data-name="Hablamos Icono" class="cls-1" d="M402.675,2645.5a1.267,1.267,0,0,0-1.262,1.27v8.76a6.331,6.331,0,0,1-6.312,6.34H381.472a1.267,1.267,0,0,0-1.262,1.27l0,2.53-3.013-3.03a1.269,1.269,0,0,0-1.157-.77h-8.2a6.33,6.33,0,0,1-6.311-6.34v-19.55a6.339,6.339,0,0,1,6.311-6.35h12.749a1.27,1.27,0,0,0,0-2.54H367.835a8.875,8.875,0,0,0-8.836,8.89v19.55a8.866,8.866,0,0,0,8.836,8.88h7.556l5.185,5.22a1.267,1.267,0,0,0,.892.37,1.172,1.172,0,0,0,.483-0.1,1.263,1.263,0,0,0,.779-1.17l0-4.32H395.1a8.866,8.866,0,0,0,8.836-8.88v-8.76A1.267,1.267,0,0,0,402.675,2645.5Zm2.607-40.5h-3.195a18.45,18.45,0,0,0,0,36.9h3.195a18.227,18.227,0,0,0,4.657-.6l4.719,4.75a1.269,1.269,0,0,0,.893.37,1.172,1.172,0,0,0,.483-0.1,1.263,1.263,0,0,0,.779-1.17v-7.35a18.5,18.5,0,0,0,4.823-5.98A18.474,18.474,0,0,0,405.282,2605Zm9.509,31.17a1.284,1.284,0,0,0-.5,1.02v4.9l-3.089-3.11a1.263,1.263,0,0,0-.892-0.37,1.19,1.19,0,0,0-.371.06,15.885,15.885,0,0,1-4.654.7h-3.195a15.915,15.915,0,0,1,0-31.83h3.195A15.93,15.93,0,0,1,414.791,2636.17Zm-10.377-22.26a5.249,5.249,0,0,0-4.022,1.43,5.412,5.412,0,0,0-1.7,3.93,1.263,1.263,0,1,0,2.525,0,2.834,2.834,0,0,1,3.022-2.83,2.841,2.841,0,0,1,.417,5.6,2.392,2.392,0,0,0-1.882,2.35v3.05a1.262,1.262,0,1,0,2.524,0v-2.95A5.377,5.377,0,0,0,404.414,2613.91Zm-0.376,17.28a1.27,1.27,0,1,0,.893,2.17,1.288,1.288,0,0,0,.37-0.9A1.281,1.281,0,0,0,404.038,2631.19Zm-10.325,13.17H367.078a1.265,1.265,0,0,0,0,2.53h26.635A1.265,1.265,0,0,0,393.713,2644.36Zm0,7.1a1.281,1.281,0,1,0,.892.38A1.262,1.262,0,0,0,393.713,2651.46Zm-26.635,0a1.27,1.27,0,0,0,0,2.54h21.669a1.27,1.27,0,0,0,0-2.54H367.078Zm18.43-14.21h-18.43a1.265,1.265,0,0,0,0,2.53h18.43A1.265,1.265,0,0,0,385.508,2637.25Z" transform="translate(-359 -2605)"/>
</svg>
