<svg xmlns="http://www.w3.org/2000/svg" width="176.72" height="188.91" viewBox="0 0 176.72 188.91">
  <metadata><?xpacket begin="﻿" id="W5M0MpCehiHzreSzNTczkc9d"?>
<x:xmpmeta xmlns:x="adobe:ns:meta/" x:xmptk="Adobe XMP Core 5.6-c142 79.160924, 2017/07/13-01:06:39        ">
   <rdf:RDF xmlns:rdf="http://www.w3.org/1999/02/22-rdf-syntax-ns#">
      <rdf:Description rdf:about=""/>
   </rdf:RDF>
</x:xmpmeta>
                                                                                                    
                                                                                                    
                                                                                                    
                                                                                                    
                                                                                                    
                                                                                                    
                                                                                                    
                                                                                                    
                                                                                                    
                                                                                                    
                                                                                                    
                                                                                                    
                                                                                                    
                                                                                                    
                                                                                                    
                                                                                                    
                                                                                                    
                                                                                                    
                                                                                                    
                                                                                                    
                           
<?xpacket end="w"?></metadata>
<defs>
    <style>
      .cls-1 {
        fill: #1a31ca;
        fill-rule: evenodd;
      }
    </style>
  </defs>
  <path id="o" class="cls-1" d="M1508.44,1559.01q8.8-13.455,28.69-13.45,20.055,0,28.85,13.53t8.8,40.59q0,27.225-8.72,41t-28.61,13.77q-20.04,0-28.93-13.85t-8.88-40.92Q1499.64,1572.455,1508.44,1559.01Zm106.45-9.38a76.286,76.286,0,0,0-30.81-32.76q-20.055-11.415-46.3-11.41-42.225,0-65.53,24.78t-23.31,69.44q0,28.695,10.76,50.21a76.515,76.515,0,0,0,30.81,33.01q20.04,11.49,46.29,11.49,41.9,0,65.37-25.11,23.475-25.1,23.47-69.6Q1625.64,1570.985,1614.89,1549.63Z" transform="translate(-1448.94 -1505.47)"/>
</svg>
