<svg xmlns="http://www.w3.org/2000/svg" width="54.5" height="88" viewBox="0 0 54.5 88">
  <defs>
    <style>
      .cls-1 {
        fill: #1b32cd;
        fill-rule: evenodd;
      }
    </style>
  </defs>
  <path id="Apps_Icon" data-name="Apps Icon" class="cls-1" d="M2099.05,1095h-35.42a9.511,9.511,0,0,0-9.53,9.48v69.04a9.511,9.511,0,0,0,9.53,9.48h35.42a9.517,9.517,0,0,0,9.53-9.48v-69.04A9.517,9.517,0,0,0,2099.05,1095Zm-41.74,14.67h48.06v50.05h-48.06v-50.05Zm6.32-11.48h35.42a6.308,6.308,0,0,1,6.32,6.29v2h-48.06v-2A6.308,6.308,0,0,1,2063.63,1098.19Zm35.42,81.62h-35.42a6.308,6.308,0,0,1-6.32-6.29v-10.61h48.06v10.61A6.308,6.308,0,0,1,2099.05,1179.81Zm-17.71-14.03a5.74,5.74,0,1,0,5.77,5.74A5.766,5.766,0,0,0,2081.34,1165.78Zm0,8.29a2.55,2.55,0,1,1,2.56-2.55A2.556,2.556,0,0,1,2081.34,1174.07Zm-3.53-70.14h7.05a1.6,1.6,0,1,0,0-3.19h-7.05A1.6,1.6,0,1,0,2077.81,1103.93Zm-3.33,32.04h-9.35a4.453,4.453,0,0,0-4.46,4.44v9.3a4.451,4.451,0,0,0,4.46,4.43h9.35a4.451,4.451,0,0,0,4.46-4.43v-9.3A4.453,4.453,0,0,0,2074.48,1135.97Zm1.25,13.74a1.25,1.25,0,0,1-1.25,1.25h-9.35a1.259,1.259,0,0,1-1.26-1.25v-9.3a1.259,1.259,0,0,1,1.26-1.25h9.35a1.25,1.25,0,0,1,1.25,1.25v9.3Zm21.02-13.58h-9.35a4.453,4.453,0,0,0-4.46,4.44v9.3a4.451,4.451,0,0,0,4.46,4.43h9.35a4.451,4.451,0,0,0,4.46-4.43v-9.3A4.453,4.453,0,0,0,2096.75,1136.13Zm1.25,13.74a1.25,1.25,0,0,1-1.25,1.25h-9.35a1.25,1.25,0,0,1-1.25-1.25v-9.3a1.25,1.25,0,0,1,1.25-1.25h9.35a1.25,1.25,0,0,1,1.25,1.25v9.3Zm-23.52-34.62h-9.35a4.451,4.451,0,0,0-4.46,4.43v9.3a4.453,4.453,0,0,0,4.46,4.44h9.35a4.453,4.453,0,0,0,4.46-4.44v-9.3A4.451,4.451,0,0,0,2074.48,1115.25Zm1.25,13.73a1.25,1.25,0,0,1-1.25,1.25h-9.35a1.259,1.259,0,0,1-1.26-1.25v-9.3a1.259,1.259,0,0,1,1.26-1.25h9.35a1.25,1.25,0,0,1,1.25,1.25v9.3Zm21.02-13.57h-9.35a4.451,4.451,0,0,0-4.46,4.43v9.3a4.453,4.453,0,0,0,4.46,4.44h9.35a4.453,4.453,0,0,0,4.46-4.44v-9.3A4.451,4.451,0,0,0,2096.75,1115.41Zm1.25,13.73a1.25,1.25,0,0,1-1.25,1.25h-9.35a1.25,1.25,0,0,1-1.25-1.25v-9.3a1.25,1.25,0,0,1,1.25-1.25h9.35a1.25,1.25,0,0,1,1.25,1.25v9.3Z" transform="translate(-2054.09 -1095)"/>
</svg>
