<svg xmlns="http://www.w3.org/2000/svg" width="92" height="66" viewBox="0 0 92 66">
  <defs>
    <style>
      .cls-1 {
        fill: #1b32cd;
        fill-rule: evenodd;
      }
    </style>
  </defs>
  <path id="Autos_Icon" data-name="Autos Icon" class="cls-1" d="M1474.29,1604.76h-13.75a1.76,1.76,0,0,0,0,3.52h13.75A1.76,1.76,0,0,0,1474.29,1604.76Zm28.73-25.78h-7.51a2.071,2.071,0,0,1-2.04-1.72l-2.73-15.67a10.1,10.1,0,0,0-9.98-8.39h-44.47a10.122,10.122,0,0,0-9.99,8.39l-2.23,12.82a73.182,73.182,0,0,0-1.07,12.45v15.88a5.54,5.54,0,0,0,5.54,5.54h1.33a1.76,1.76,0,1,0,0-3.52h-1.33a2.027,2.027,0,0,1-2.02-2.02v-15.88a69.214,69.214,0,0,1,1.03-11.85l2.23-12.81a6.584,6.584,0,0,1,6.51-5.48h29.61l2.64,17.65a9.569,9.569,0,0,0,9.52,8.19h17.55a1.611,1.611,0,0,0,.44-0.06h6.97a8.469,8.469,0,0,1,8.46,8.46v11.93a1.874,1.874,0,0,1-1.87,1.87h-4.66a1.76,1.76,0,0,0,0,3.52h4.66a5.4,5.4,0,0,0,5.39-5.39v-11.93A12,12,0,0,0,1503.02,1578.98Zm-30.99-5.13-2.57-17.13h11.3a6.591,6.591,0,0,1,6.51,5.48l2.72,15.66a5.189,5.189,0,0,0,.35,1.18h-12.28A6.133,6.133,0,0,1,1472.03,1573.85Zm-26.82,19.98a12.685,12.685,0,1,0,12.69,12.69A12.7,12.7,0,0,0,1445.21,1593.83Zm0,21.85a9.16,9.16,0,1,1,9.16-9.16A9.174,9.174,0,0,1,1445.21,1615.68Zm44.41-21.85a12.685,12.685,0,1,0,12.69,12.69A12.7,12.7,0,0,0,1489.62,1593.83Zm0,21.85a9.16,9.16,0,1,1,9.17-9.16A9.171,9.171,0,0,1,1489.62,1615.68Z" transform="translate(-1423 -1553.19)"/>
</svg>
