<svg xmlns="http://www.w3.org/2000/svg" width="96" height="89" viewBox="0 0 96 89">
  <defs>
    <style>
      .cls-1 {
        fill: #1b32cd;
        fill-rule: evenodd;
      }
    </style>
  </defs>
  <path id="Coworking_Icon" data-name="Coworking Icon" class="cls-1" d="M2376.85,1173.87h-28.43a9.436,9.436,0,0,1-9.42-9.42v-6.04a26.087,26.087,0,0,1,48.63-13.11,1.851,1.851,0,0,1-.67,2.54,1.871,1.871,0,0,1-2.54-.67,22.373,22.373,0,0,0-41.71,11.24v6.04a5.715,5.715,0,0,0,5.71,5.71h28.43A1.855,1.855,0,0,1,2376.85,1173.87Zm-13.38-42.89a18,18,0,1,1,18-18A18.023,18.023,0,0,1,2363.47,1130.98Zm0-32.28a14.285,14.285,0,1,0,14.29,14.28A14.306,14.306,0,0,0,2363.47,1098.7Zm63.59,85.31h-36.28a7.944,7.944,0,0,1-7.94-7.93v-12.26a21.358,21.358,0,0,1,21.34-21.33h9.48a21.358,21.358,0,0,1,21.34,21.33v12.26A7.944,7.944,0,0,1,2427.06,1184.01Zm-22.88-37.81a17.643,17.643,0,0,0-17.63,17.62v12.26a4.229,4.229,0,0,0,4.23,4.22h36.28a4.229,4.229,0,0,0,4.23-4.22v-12.26a17.643,17.643,0,0,0-17.63-17.62h-9.48Zm3.12-5.08a18,18,0,1,1,18.01-17.99A18.012,18.012,0,0,1,2407.3,1141.12Zm0-32.28a14.285,14.285,0,1,0,14.3,14.29A14.306,14.306,0,0,0,2407.3,1108.84Z" transform="translate(-2339 -1095)"/>
</svg>
