<svg xmlns="http://www.w3.org/2000/svg" width="88" height="88" viewBox="0 0 88 88">
  <defs>
    <style>
      .cls-1 {
        fill: #1b32cd;
        fill-rule: evenodd;
      }
    </style>
  </defs>
  <path id="Crypto_Icon" data-name="Crypto Icon" class="cls-1" d="M2096.46,691.4a12.539,12.539,0,0,0-5.15-23.1v-4.809a1.815,1.815,0,1,0-3.63,0v4.727h-6.09v-4.727a1.81,1.81,0,1,0-3.62,0v4.727h-10.93a1.818,1.818,0,0,0,0,3.636h4v17.788h-4a1.819,1.819,0,0,0,0,3.637h4v17.788h-3.81a1.818,1.818,0,0,0,0,3.636h9.26v4.758a1.81,1.81,0,1,0,3.62,0V714.7h6.1v4.758a1.81,1.81,0,1,0,3.62,0V714.7h0.26A12.537,12.537,0,0,0,2096.46,691.4Zm-21.8-19.548h15.24a8.894,8.894,0,0,1,0,17.788h-15.24V671.848Zm15.43,39.213h-15.43V693.273h15.43A8.894,8.894,0,0,1,2090.09,711.061ZM2083.72,650c-19.56,0-31.57,14.449-31.75,14.6a41.492,41.492,0,0,0,26.31,73.4c15.21,0,30.51-13.563,30.58-13.694A41.471,41.471,0,0,0,2083.72,650Zm-5.44,84.364a37.863,37.863,0,0,1-34.76-52.395,41.324,41.324,0,0,0,46.75,50.416A37.52,37.52,0,0,1,2078.28,734.364Zm5.44-5.091a37.819,37.819,0,1,1,37.66-37.818A37.788,37.788,0,0,1,2083.72,729.273Z" transform="translate(-2037 -650)"/>
</svg>
