<svg xmlns="http://www.w3.org/2000/svg" width="78.78" height="88" viewBox="0 0 78.78 88">
  <defs>
    <style>
      .cls-1 {
        fill: #1b32cd;
        fill-rule: evenodd;
      }
    </style>
  </defs>
  <path id="Ecnomía_Icon" data-name="Ecnomía Icon" class="cls-1" d="M2405.18,1552.29a45.392,45.392,0,0,0-11.65,1.46v-5.66c0-5.9-10.83-9.09-21.02-9.09s-21.03,3.19-21.03,9.09v40.11a1.54,1.54,0,1,0,3.08,0v-9.93c3.94,2.74,11.09,4.19,17.95,4.19a45.146,45.146,0,0,0,11.65-1.44v11.68a1.535,1.535,0,1,0,3.07,0v-1.14c3.94,2.74,11.09,4.19,17.95,4.19s14-1.45,17.95-4.19v8.06c0,2.51-6.83,6.02-17.95,6.02-5.58,0-10.79-.94-14.31-2.57a1.539,1.539,0,1,0-1.3,2.79c3.91,1.81,9.6,2.85,15.61,2.85,6.86,0,14-1.44,17.95-4.19v6.22a1.611,1.611,0,0,0,.06.44,1.49,1.49,0,0,0-.06.43c0,2.51-6.83,6.02-17.95,6.02-6.04,0-11.69-1.12-15.13-2.99a1.542,1.542,0,1,0-1.47,2.71c3.93,2.13,9.98,3.35,16.6,3.35,10.19,0,21.02-3.18,21.02-9.09a1.489,1.489,0,0,0-.07-0.43,1.619,1.619,0,0,0,.07-0.44v-49.36C2426.2,1555.48,2415.37,1552.29,2405.18,1552.29Zm17.95,21.4c0,2.51-6.83,6.02-17.95,6.02s-17.95-3.51-17.95-6.02v-7.41c3.94,2.75,11.09,4.2,17.95,4.2s14-1.45,17.95-4.2v7.41Zm0-12.31c0,2.52-6.83,6.02-17.95,6.02s-17.95-3.5-17.95-6.02,6.83-6.01,17.95-6.01S2423.13,1558.87,2423.13,1561.38Zm-38.97,0v3.47a40.946,40.946,0,0,1-11.65,1.57c-11.12,0-17.95-3.51-17.95-6.02v-7.41c3.94,2.75,11.09,4.2,17.95,4.2s14-1.45,17.94-4.2v1.79C2386.69,1556.31,2384.16,1558.53,2384.16,1561.38Zm-11.65-19.3c11.12,0,17.94,3.5,17.94,6.01s-6.82,6.02-17.94,6.02-17.95-3.5-17.95-6.02S2361.39,1542.08,2372.51,1542.08Zm0,37.3c-11.12,0-17.95-3.5-17.95-6.01v-8.07c3.94,2.75,11.09,4.19,17.95,4.19a45.386,45.386,0,0,0,11.65-1.43v9.76A40.76,40.76,0,0,1,2372.51,1579.38Zm32.67,13.29c-11.12,0-17.95-3.5-17.95-6.01v-7.02a1.567,1.567,0,0,0,.22-0.9c3.98,2.65,10.99,4.04,17.73,4.04,6.86,0,14-1.44,17.95-4.19v8.07C2423.13,1589.17,2416.3,1592.67,2405.18,1592.67Zm-37.62-6.01a20.17,20.17,0,1,0,20.16,20.17A20.187,20.187,0,0,0,2367.56,1586.66Zm0,37.26a17.09,17.09,0,1,1,17.08-17.09A17.107,17.107,0,0,1,2367.56,1623.92Zm-1.46-20.83a1.54,1.54,0,0,0,2.92,0l2.18-6.54a3.84,3.84,0,1,0-7.28,0Zm0.84-8.21a0.76,0.76,0,0,1,.62-0.31,0.777,0.777,0,0,1,.62.31,0.766,0.766,0,0,1,.1.69l-0.72,2.18-0.73-2.18A0.734,0.734,0,0,1,2366.94,1594.88Zm10.89,8.31-6.53,2.18a1.54,1.54,0,0,0,0,2.92l6.53,2.18a3.671,3.671,0,0,0,1.22.2,3.841,3.841,0,0,0,2.24-6.96A3.84,3.84,0,0,0,2377.83,1603.19Zm1.99,3.64a0.738,0.738,0,0,1-.32.62,0.762,0.762,0,0,1-.69.11l-2.17-.73,2.17-.73a0.762,0.762,0,0,1,.69.11A0.738,0.738,0,0,1,2379.82,1606.83Zm-10.8,3.74a1.54,1.54,0,0,0-2.92,0l-2.18,6.54a3.837,3.837,0,1,0,7.28,0Zm-0.84,8.21a0.75,0.75,0,0,1-.62.31,0.762,0.762,0,0,1-.73-1l0.73-2.18,0.72,2.18A0.766,0.766,0,0,1,2368.18,1618.78Zm-3.31-11.95a1.551,1.551,0,0,0-1.05-1.46l-6.54-2.18a3.842,3.842,0,0,0-3.46,6.76,3.886,3.886,0,0,0,2.25.72,3.573,3.573,0,0,0,1.21-.2l6.54-2.18A1.551,1.551,0,0,0,2364.87,1606.83Zm-8.56.73a0.762,0.762,0,0,1-.69-0.11,0.761,0.761,0,0,1,0-1.24,0.784,0.784,0,0,1,.44-0.15,0.766,0.766,0,0,1,.25.04l2.17,0.73Z" transform="translate(-2347.41 -1539)"/>
</svg>
