<svg xmlns="http://www.w3.org/2000/svg" width="108" height="82" viewBox="0 0 108 82">
  <defs>
    <style>
      .cls-1 {
        fill: #1b32cd;
        fill-rule: evenodd;
      }
    </style>
  </defs>
  <path id="eLearning_Icon" data-name="eLearning Icon" class="cls-1" d="M1823.02,1990h-98.04a5,5,0,0,0-4.98,5.01v57.53a4.991,4.991,0,0,0,4.98,5h38.14v9.93h-10.74a2.26,2.26,0,0,0,0,4.52h43.24a2.26,2.26,0,0,0,0-4.52h-10.74v-9.93h38.14a4.991,4.991,0,0,0,4.98-5v-57.53A5,5,0,0,0,1823.02,1990Zm-42.64,77.47h-12.76v-9.93h12.76v9.93Zm43.12-14.93a0.48,0.48,0,0,1-.48.48h-98.04a0.48,0.48,0,0,1-.48-0.48v-57.53a0.474,0.474,0,0,1,.48-0.48h98.04a0.474,0.474,0,0,1,.48.48v57.53Zm-9.29-44.1h-52.53a2.26,2.26,0,0,0,0,4.52h52.53A2.26,2.26,0,0,0,1814.21,2008.44Zm0,9.12h-52.53a2.26,2.26,0,0,0,0,4.52h52.53A2.26,2.26,0,0,0,1814.21,2017.56Zm0,9.12h-52.53a2.26,2.26,0,0,0,0,4.52h52.53A2.26,2.26,0,0,0,1814.21,2026.68Zm0,9.12h-80.74a2.265,2.265,0,0,0,0,4.53h80.74A2.265,2.265,0,0,0,1814.21,2035.8Zm-81.74-3.06a2.252,2.252,0,0,0,3.02-1.01l3.19-6.42h11.1l3.2,6.42a2.231,2.231,0,0,0,3.01,1.01,2.264,2.264,0,0,0,1.01-3.04l-10.76-21.62a2.241,2.241,0,0,0-4.02,0l-10.76,21.62A2.281,2.281,0,0,0,1732.47,2032.74Zm11.76-18.59,3.3,6.63h-6.6Z" transform="translate(-1720 -1990)"/>
</svg>
