<svg xmlns="http://www.w3.org/2000/svg" width="88.35" height="88" viewBox="0 0 88.35 88">
  <defs>
    <style>
      .cls-1 {
        fill: #1b32cd;
        fill-rule: evenodd;
      }
    </style>
  </defs>
  <path id="UX_Icon" data-name="UX Icon" class="cls-1" d="M1774.21,2474.14a15.3,15.3,0,1,0-15.36-15.29A15.341,15.341,0,0,0,1774.21,2474.14Zm0-26.5a11.205,11.205,0,1,1-11.25,11.21A11.237,11.237,0,0,1,1774.21,2447.64Zm38.13-17.64h-76.27a6.026,6.026,0,0,0-6.03,6.01v40.75a6.018,6.018,0,0,0,6.03,6h16.51a2.045,2.045,0,1,0,0-4.09h-16.51a1.918,1.918,0,0,1-1.92-1.91v-40.75a1.912,1.912,0,0,1,1.92-1.91h76.27a1.912,1.912,0,0,1,1.92,1.91v40.75a1.918,1.918,0,0,1-1.92,1.91h-16.48a2.045,2.045,0,1,0,0,4.09h16.48a6.018,6.018,0,0,0,6.03-6v-40.75A6.026,6.026,0,0,0,1812.34,2430Zm-20.33,54.57h-3.5a16.979,16.979,0,0,0-14.3-7.71,17.167,17.167,0,0,0-14.31,7.71h-3.5a6.594,6.594,0,0,0-6.6,6.57v20.8a6.079,6.079,0,0,0,6.08,6.06h36.65a6.079,6.079,0,0,0,6.08-6.06v-20.8A6.594,6.594,0,0,0,1792.01,2484.57Zm-17.8-3.62a12.952,12.952,0,0,1,9.01,3.62h-18.01A13.072,13.072,0,0,1,1774.21,2480.95Zm20.29,30.99a1.965,1.965,0,0,1-1.97,1.96h-36.65a1.965,1.965,0,0,1-1.97-1.96v-20.8a2.486,2.486,0,0,1,2.49-2.47h35.61a2.486,2.486,0,0,1,2.49,2.47v20.8Z" transform="translate(-1730.03 -2430)"/>
</svg>
