<svg xmlns="http://www.w3.org/2000/svg" width="60.44" height="88" viewBox="0 0 60.44 88">
  <defs>
    <style>
      .cls-1 {
        fill: #1b32cd;
        fill-rule: evenodd;
      }
    </style>
  </defs>
  <path id="Fintech_Icon" data-name="Fintech Icon" class="cls-1" d="M2409.86,706.821a1.593,1.593,0,0,0-1.6,1.594v6.31h-47.97V664.667h47.97v3.188a1.6,1.6,0,0,0,3.2,0V659.48a9.508,9.508,0,0,0-9.51-9.48H2366.6a9.508,9.508,0,0,0-9.51,9.48v69.04a9.508,9.508,0,0,0,9.51,9.48h35.35a9.508,9.508,0,0,0,9.51-9.48V708.415A1.6,1.6,0,0,0,2409.86,706.821Zm-43.26-53.633h35.35a6.308,6.308,0,0,1,6.31,6.292v2h-47.97v-2A6.308,6.308,0,0,1,2366.6,653.188Zm35.35,81.624H2366.6a6.308,6.308,0,0,1-6.31-6.292V717.913h47.97V728.52A6.308,6.308,0,0,1,2401.95,734.812Zm-17.68-14.029a5.739,5.739,0,1,0,5.76,5.739A5.751,5.751,0,0,0,2384.27,720.783Zm0,8.289a2.551,2.551,0,1,1,2.56-2.55A2.55,2.55,0,0,1,2384.27,729.072Zm-3.51-70.144h7.03a1.595,1.595,0,1,0,0-3.189h-7.03A1.595,1.595,0,1,0,2380.76,658.928Zm30.7,27.588v-8.8a4.46,4.46,0,0,1,2.87,4.164,1.6,1.6,0,0,0,3.2,0,7.672,7.672,0,0,0-6.07-7.484v-0.487a1.6,1.6,0,0,0-3.2,0V674.4a7.646,7.646,0,0,0,0,14.968v8.8a4.469,4.469,0,0,1-2.88-4.164,1.6,1.6,0,0,0-3.2,0,7.671,7.671,0,0,0,6.08,7.484v0.487a1.6,1.6,0,0,0,3.2,0v-0.487A7.649,7.649,0,0,0,2411.46,686.516Zm-6.08-4.632a4.469,4.469,0,0,1,2.88-4.164v8.328A4.469,4.469,0,0,1,2405.38,681.884Zm6.08,16.28v-8.328A4.456,4.456,0,0,1,2411.46,698.164Z" transform="translate(-2357.09 -650)"/>
</svg>
