<svg xmlns="http://www.w3.org/2000/svg" width="96.03" height="88" viewBox="0 0 96.03 88">
  <defs>
    <style>
      .cls-1 {
        fill: #1b32cd;
        fill-rule: evenodd;
      }
    </style>
  </defs>
  <path id="Funding_Icon" data-name="Funding Icon" class="cls-1" d="M1748.18,1131.95a2,2,0,0,0,.99-0.27,20.713,20.713,0,0,1,10.55-2.87,1.92,1.92,0,1,0,0-3.84,24.755,24.755,0,0,0-12.53,3.4,1.925,1.925,0,0,0-.68,2.64A1.952,1.952,0,0,0,1748.18,1131.95Zm68.42,8.4h-2.68a24.554,24.554,0,0,0-22.84-15.38,1.92,1.92,0,1,0,0,3.84,20.675,20.675,0,0,1,19.65,14.07,1.929,1.929,0,0,0,1.83,1.31h4.04a2.544,2.544,0,0,1,2.55,2.53v6.86a2.55,2.55,0,0,1-2.55,2.53h-4.61a1.933,1.933,0,0,0-1.79,1.18,20.713,20.713,0,0,1-11.87,11.35,1.925,1.925,0,0,0-1.25,1.8v8.73h-7.75v-7.3a1.925,1.925,0,0,0-1.93-1.93h-22.46a1.925,1.925,0,0,0-1.93,1.93v7.3h-7.75v-8.22a1.914,1.914,0,0,0-1.39-1.84,20.7,20.7,0,0,1-14.87-19.73,20.4,20.4,0,0,1,3.03-10.71,1.923,1.923,0,0,0-.64-2.65,1.95,1.95,0,0,0-2.66.64,24.01,24.01,0,0,0-2.51,5.54,6.148,6.148,0,1,1,7.04-6.08,1.935,1.935,0,0,0,3.87,0,10.065,10.065,0,1,0-11.76,9.85,24.117,24.117,0,0,0-.24,3.41,24.581,24.581,0,0,0,16.26,22.97v8.74a1.931,1.931,0,0,0,1.94,1.92h11.61a1.931,1.931,0,0,0,1.94-1.92v-7.3h18.58v7.3a1.931,1.931,0,0,0,1.94,1.92h11.61a1.931,1.931,0,0,0,1.94-1.92v-9.36a24.6,24.6,0,0,0,12.29-11.78h3.36a6.4,6.4,0,0,0,6.42-6.37v-6.86A6.4,6.4,0,0,0,1816.6,1140.35Zm-14.1.38a1.55,1.55,0,1,0-1.55,1.54A1.549,1.549,0,0,0,1802.5,1140.73Zm-36.01-8.46h-0.77a1.925,1.925,0,1,0,0,3.85h23.61a1.925,1.925,0,1,0,0-3.85h-1.16A10.84,10.84,0,0,0,1766.49,1132.27Zm17.81,0h-13.94A6.97,6.97,0,0,1,1784.3,1132.27Zm-20.13-8.84a7.3,7.3,0,1,0-7.36-7.3A7.332,7.332,0,0,0,1764.17,1123.43Zm0-10.76a3.46,3.46,0,1,1-3.49,3.46A3.472,3.472,0,0,1,1764.17,1112.67Zm14.32,6.15a1.931,1.931,0,0,0,1.94-1.92v-13.84a1.935,1.935,0,0,0-3.87,0v13.84A1.923,1.923,0,0,0,1778.49,1118.82Zm-15.48-11.53a1.923,1.923,0,0,0,1.93-1.92v-8.46a1.935,1.935,0,0,0-3.87,0v8.46A1.931,1.931,0,0,0,1763.01,1107.29Z" transform="translate(-1727 -1095)"/>
</svg>
