<svg xmlns="http://www.w3.org/2000/svg" width="59.41" height="89.03" viewBox="0 0 59.41 89.03">
  <defs>
    <style>
      .cls-1 {
        fill: #1b32cd;
        fill-rule: evenodd;
      }
    </style>
  </defs>
  <path id="Gamification_Icon" data-name="Gamification Icon" class="cls-1" d="M2387,1992.43a20.245,20.245,0,1,0,20.26,20.25A20.276,20.276,0,0,0,2387,1992.43Zm0,36.72a16.475,16.475,0,1,1,16.49-16.47A16.495,16.495,0,0,1,2387,2029.15Zm29.7-16.47a29.705,29.705,0,1,0-47.17,23.98v31.69a3.651,3.651,0,0,0,5.71,3.02l11.76-7.97,11.75,7.97a3.67,3.67,0,0,0,2.06.63,3.724,3.724,0,0,0,1.71-.42,3.655,3.655,0,0,0,1.94-3.23v-31.69A29.644,29.644,0,0,0,2416.7,2012.68Zm-16.01,55.45-12.64-8.57a1.887,1.887,0,0,0-2.11,0l-12.64,8.57V2039a29.59,29.59,0,0,0,27.39,0v29.13ZM2387,2038.59a25.91,25.91,0,1,1,25.93-25.91A25.954,25.954,0,0,1,2387,2038.59Z" transform="translate(-2357.28 -1983)"/>
</svg>
