<svg xmlns="http://www.w3.org/2000/svg" width="87.84" height="72.72" viewBox="0 0 87.84 72.72">
  <defs>
    <style>
      .cls-1 {
        fill: #1b32cd;
        fill-rule: evenodd;
      }
    </style>
  </defs>
  <path id="Industria_Icon" data-name="Industria Icon" class="cls-1" d="M2072.61,1600.88a1.616,1.616,0,0,0,1.25-.6,26.856,26.856,0,0,1,41.62-.16,1.6,1.6,0,0,0,2.26.22,1.616,1.616,0,0,0,.22-2.27,30.074,30.074,0,0,0-46.6.18A1.615,1.615,0,0,0,2072.61,1600.88Zm51.77-12.25a41.114,41.114,0,0,0-59.61.33,1.621,1.621,0,0,0,.06,2.28,1.644,1.644,0,0,0,1.11.44,1.593,1.593,0,0,0,1.17-.51,37.911,37.911,0,0,1,54.96-.31A1.605,1.605,0,1,0,2124.38,1588.63Zm-29.65,19.81a9.357,9.357,0,0,0-9.33,9.35,1.61,1.61,0,0,0,3.22,0,6.115,6.115,0,1,1,12.23,0,1.605,1.605,0,1,0,3.21,0A9.351,9.351,0,0,0,2094.73,1608.44Zm16.43,2.3a1.611,1.611,0,0,0,.71-2.16,19.182,19.182,0,0,0-34.32.1,1.6,1.6,0,0,0,.72,2.16,1.514,1.514,0,0,0,.71.17,1.6,1.6,0,0,0,1.44-.89,15.982,15.982,0,0,1,28.58-.09A1.6,1.6,0,0,0,2111.16,1610.74Zm-32.18,2.97h-38.77v-49.64l24.24-13.08v12.12a1.612,1.612,0,0,0,.78,1.38,1.586,1.586,0,0,0,1.59.04l25.08-13.54v12.12a1.612,1.612,0,0,0,.78,1.38,1.586,1.586,0,0,0,1.59.04l25.08-13.54v28.5a1.61,1.61,0,1,0,3.22,0v-31.2a1.616,1.616,0,0,0-.79-1.39,1.591,1.591,0,0,0-1.58-.03l-25.08,13.54v-12.12a1.616,1.616,0,0,0-.79-1.39,1.591,1.591,0,0,0-1.58-.03l-25.08,13.54v-12.12a1.611,1.611,0,0,0-2.38-1.42l-27.45,14.82a1.612,1.612,0,0,0-.84,1.42v52.21a1.609,1.609,0,0,0,1.61,1.61h40.37A1.61,1.61,0,1,0,2078.98,1613.71Zm41.98-20.52a1.609,1.609,0,0,0-1.61,1.61v18.91h-7.78a1.61,1.61,0,0,0,0,3.22h9.39a1.609,1.609,0,0,0,1.61-1.61V1594.8A1.609,1.609,0,0,0,2120.96,1593.19Z" transform="translate(-2037 -1546.69)"/>
</svg>
