<svg xmlns="http://www.w3.org/2000/svg" width="73.25" height="88" viewBox="0 0 73.25 88">
  <defs>
    <style>
      .cls-1 {
        fill: #1b32cd;
        fill-rule: evenodd;
      }
    </style>
  </defs>
  <path id="AI_Icon" data-name="AI Icon" class="cls-1" d="M1490.75,665.728h3.99a1.532,1.532,0,0,0,3.06-.113v-3.077a1.535,1.535,0,1,0-3.07,0v0.113h-4a5.6,5.6,0,0,0-4.92-5.15V653.45a1.535,1.535,0,0,0-.12-3.065h-3.06a1.539,1.539,0,0,0,0,3.077h0.11v4h-3.98V653.45a1.535,1.535,0,0,0-.11-3.065h-3.07a1.539,1.539,0,0,0,0,3.077h0.11v4.021a5.591,5.591,0,0,0-5.14,5.168h-4.01v-0.113a1.53,1.53,0,1,0-3.06,0v3.077a1.527,1.527,0,0,0,3.05.113h4v4h-3.99v-0.113a1.53,1.53,0,1,0-3.06,0v3.077a1.527,1.527,0,0,0,3.05.113h4.04a5.587,5.587,0,0,0,5.12,4.943v4.021h-0.11a1.539,1.539,0,0,0,0,3.077h3.07a1.535,1.535,0,0,0,.11-3.065v-4.012h3.98v4h-0.11a1.539,1.539,0,0,0,0,3.077h3.06a1.535,1.535,0,0,0,.12-3.065V677.73a5.6,5.6,0,0,0,4.9-4.925h4.03a1.532,1.532,0,0,0,3.06-.113v-3.077a1.535,1.535,0,1,0-3.07,0v0.113h-3.98v-4Zm-3.06,6.436a2.527,2.527,0,0,1-2.52,2.528h-9.06a2.527,2.527,0,0,1-2.52-2.528v-9.1a2.527,2.527,0,0,1,2.52-2.529h9.06a2.527,2.527,0,0,1,2.52,2.529v9.1Zm4.44,14.239a1.537,1.537,0,0,0-1.79,1.229l-8.83,47.291H1456.6l2.23-8.211a1.532,1.532,0,0,0-1.52-1.942l-8.41.24a11.074,11.074,0,0,1-8.15-3.206,11.209,11.209,0,0,1-3.35-8.112l0.04-3.37a1.552,1.552,0,0,0-.45-1.1,1.533,1.533,0,0,0-1.09-.456h-8.01l4.01-25.91a1.863,1.863,0,0,0,.02-0.236,29.518,29.518,0,0,1,29.42-29.546,1.539,1.539,0,0,0,0-3.077,32.585,32.585,0,0,0-32.48,32.5l-4.28,27.569a1.578,1.578,0,0,0,.35,1.237,1.55,1.55,0,0,0,1.17.538h8.26l-0.02,1.819a14.269,14.269,0,0,0,14.64,14.42l6.35-.181-2.21,8.153a1.537,1.537,0,0,0,1.47,1.943h28.19a1.539,1.539,0,0,0,1.51-1.255l9.06-48.547A1.534,1.534,0,0,0,1492.13,686.4Z" transform="translate(-1424.56 -650)"/>
</svg>
