<svg xmlns="http://www.w3.org/2000/svg" width="74.75" height="88" viewBox="0 0 74.75 88">
  <defs>
    <style>
      .cls-1 {
        fill: #1b32cd;
        fill-rule: evenodd;
      }
    </style>
  </defs>
  <path id="IoT_Icon" data-name="IoT Icon" class="cls-1" d="M1754.02,696.664a1.955,1.955,0,0,1-1.25-.446,1.978,1.978,0,0,1-.29-2.8,37.137,37.137,0,0,1,57.56-.22,1.99,1.99,0,0,1-3.07,2.534,33.168,33.168,0,0,0-51.41.2A1.983,1.983,0,0,1,1754.02,696.664Zm-8.25-11.369a1.962,1.962,0,0,1-1.36-.543,1.994,1.994,0,0,1-.08-2.814,50.795,50.795,0,0,1,73.64-.411,1.988,1.988,0,1,1-2.86,2.763,46.829,46.829,0,0,0-67.89.379A1.982,1.982,0,0,1,1745.77,685.3Zm45.11,34.256a1.988,1.988,0,0,1-1.98-1.991,7.55,7.55,0,1,0-15.1,0,1.99,1.99,0,1,1-3.98,0,11.525,11.525,0,1,1,23.05,0A1.99,1.99,0,0,1,1790.88,719.551Zm-28.99-10.362a1.988,1.988,0,0,1-1.78-2.879,23.7,23.7,0,0,1,42.4-.134,1.985,1.985,0,1,1-3.54,1.8,19.731,19.731,0,0,0-35.3.112A1.989,1.989,0,0,1,1761.89,709.189Zm-10.35-40.723a1.989,1.989,0,0,1-1.99-1.99A16.482,16.482,0,0,1,1766,650h25.53a1.991,1.991,0,0,1,0,3.982H1766a12.494,12.494,0,0,0-12.47,12.494A1.989,1.989,0,0,1,1751.54,668.466ZM1791.53,738H1766a16.482,16.482,0,0,1-16.45-16.476V707.2a1.99,1.99,0,1,1,3.98,0v14.326A12.493,12.493,0,0,0,1766,734.018h25.53A12.493,12.493,0,0,0,1804,721.524a1.985,1.985,0,1,1,3.97,0A16.473,16.473,0,0,1,1791.53,738Z" transform="translate(-1743.78 -650)"/>
</svg>
