<svg xmlns="http://www.w3.org/2000/svg" width="105" height="81" viewBox="0 0 105 81">
  <defs>
    <style>
      .cls-1 {
        fill: #1b32cd;
        fill-rule: evenodd;
      }
    </style>
  </defs>
  <path id="Libros_Icon" data-name="Libros Icon" class="cls-1" d="M2133.99,2005.41a0.487,0.487,0,0,0-.01-0.12,2.81,2.81,0,0,0-.9-2.31l-10.07-8.8a2.169,2.169,0,0,0-1.18-.87c-5.1-1.48-12.58-2.32-20.51-2.32a81.8,81.8,0,0,0-19.87,2.14,81.625,81.625,0,0,0-19.87-2.14c-7.8,0-15.19.82-20.28,2.25a2.192,2.192,0,0,0-1.13.79l-10.25,8.95a2.848,2.848,0,0,0-.91,2.31c0,0.04-.01.08-0.01,0.12v63.94a0.433,0.433,0,0,0,.01.05,1.628,1.628,0,0,0,.03.31,1.8,1.8,0,0,0,.02.22c0.02,0.08.04,0.16,0.07,0.25a2.172,2.172,0,0,0,.07.24c0.03,0.07.06,0.14,0.09,0.2a2.1,2.1,0,0,0,.13.26c0.01,0.02.01,0.03,0.02,0.05,0.07,0.1.14,0.19,0.21,0.28,0.01,0.02.03,0.03,0.04,0.05a2.367,2.367,0,0,0,.28.27,0.138,0.138,0,0,0,.04.03,1.852,1.852,0,0,0,.33.21,0.251,0.251,0,0,0,.07.04,1.735,1.735,0,0,0,.36.13,0.637,0.637,0,0,1,.07.02,2.713,2.713,0,0,0,.41.04h100.5a2.713,2.713,0,0,0,.41-0.04,0.637,0.637,0,0,1,.07-0.02,1.735,1.735,0,0,0,.36-0.13,0.251,0.251,0,0,0,.07-0.04,1.852,1.852,0,0,0,.33-0.21,0.138,0.138,0,0,0,.04-0.03,2.367,2.367,0,0,0,.28-0.27c0.01-.02.03-0.03,0.04-0.05,0.07-.09.14-0.18,0.21-0.28,0.01-.02.01-0.03,0.02-0.05a2.1,2.1,0,0,0,.13-0.26c0.03-.06.06-0.13,0.09-0.2a2.172,2.172,0,0,0,.07-0.24c0.03-.09.05-0.17,0.07-0.25a1.8,1.8,0,0,0,.02-0.22,1.628,1.628,0,0,0,.03-0.31v-63.99Zm-100.5,1.04,6.09-5.31v57.65l-6.09,5.3v-57.64Zm9.28,56.14a77.77,77.77,0,0,1,18.81-2c7.59,0,14.68.79,19.45,2.17a1.8,1.8,0,0,0,1.43-.16,77.982,77.982,0,0,1,18.86-2.01,76.845,76.845,0,0,1,18.95,2.04l4.66,4.07h-86.86Zm80.77-3.7v-57.65l5.97,5.21v57.64Zm-4.49-60.87v58.9a87.513,87.513,0,0,0-17.73-1.63,89.127,89.127,0,0,0-17.52,1.58v-58.9a82.255,82.255,0,0,1,17.52-1.68A80.777,80.777,0,0,1,2119.05,1998.02Zm-39.74,0v58.9a87.513,87.513,0,0,0-17.73-1.63,89.275,89.275,0,0,0-17.52,1.58v-58.9a82.255,82.255,0,0,1,17.52-1.68A80.777,80.777,0,0,1,2079.31,1998.02Z" transform="translate(-2029 -1991)"/>
</svg>
