<svg xmlns="http://www.w3.org/2000/svg" width="106" height="81.75" viewBox="0 0 106 81.75">
  <defs>
    <style>
      .cls-1 {
        fill: #1b32cd;
        fill-rule: evenodd;
      }
    </style>
  </defs>
  <path id="MD_Icon" data-name="MD Icon" class="cls-1" d="M1513.6,2463.03h-4.29v-25.02a2.037,2.037,0,0,0-.81-1.63,2.073,2.073,0,0,0-1.8-.34l-63.81,18h-9.47a17.35,17.35,0,1,0,0,34.7h7.86v26.94a2.053,2.053,0,0,0,2.05,2.05H1462a2.086,2.086,0,0,0,1.55-.7,2.017,2.017,0,0,0,.49-1.61l-1.29-10.23h4.97a2.055,2.055,0,0,0,2.06-2.05v-6.82l36.92,10.42a2.1,2.1,0,0,0,.56.08,2.083,2.083,0,0,0,1.24-.42,2.037,2.037,0,0,0,.81-1.63v-25.02h4.29A8.36,8.36,0,1,0,1513.6,2463.03Zm-93.49,8.36a13.292,13.292,0,0,1,13.31-13.25h7.86v26.5h-7.86A13.292,13.292,0,0,1,1420.11,2471.39Zm25.28,42.24v-24.19l11.64,3.28,2.64,20.91h-14.28Zm20.27-12.54h-3.43l-0.9-7.15,4.33,1.22v5.93Zm39.54,0.97-45.37-12.8a2.064,2.064,0,0,0-.78-0.22l-13.66-3.86V2457.6l59.81-16.88v61.34Zm8.4-26.4h-4.29v-8.54h4.29A4.27,4.27,0,1,1,1513.6,2475.66Z" transform="translate(-1416 -2435.97)"/>
</svg>
