<svg xmlns="http://www.w3.org/2000/svg" width="82.75" height="82.81" viewBox="0 0 82.75 82.81">
  <defs>
    <style>
      .cls-1 {
        fill: #1b32cd;
        fill-rule: evenodd;
      }
    </style>
  </defs>
  <path id="Productividad_Icon" data-name="Productividad Icon" class="cls-1" d="M1483.45,2028.83h-13.86v-19.5a1.59,1.59,0,0,0-3.18,0v21.09a1.588,1.588,0,0,0,1.59,1.59h15.45A1.59,1.59,0,0,0,1483.45,2028.83ZM1468,1989.01a41.405,41.405,0,1,0,41.36,41.41A41.432,41.432,0,0,0,1468,1989.01Zm1.74,79.59-0.06-7.4a1.586,1.586,0,0,0-1.59-1.58h-0.01a1.6,1.6,0,0,0-1.58,1.61l0.06,7.38a38.247,38.247,0,0,1-36.69-36.3l7.38-.09a1.59,1.59,0,0,0-.01-3.18h-0.02l-7.37.08a38.23,38.23,0,0,1,36.7-36.89v7.39a1.59,1.59,0,1,0,3.18,0v-7.38a38.239,38.239,0,0,1,36.41,36.58l-7.38.03a1.6,1.6,0,0,0,0,3.19h0.01l7.37-.03A38.247,38.247,0,0,1,1469.74,2068.6Z" transform="translate(-1426.63 -1989)"/>
</svg>
