<svg xmlns="http://www.w3.org/2000/svg" width="91.97" height="87.94" viewBox="0 0 91.97 87.94">
  <defs>
    <style>
      .cls-1 {
        fill: #1b32cd;
        fill-rule: evenodd;
      }
    </style>
  </defs>
  <path id="Social_Icon" data-name="Social Icon" class="cls-1" d="M2091.75,2459.37a15.594,15.594,0,1,0-8.85-8.02A15.53,15.53,0,0,0,2091.75,2459.37Zm-5.57-18.56a11.425,11.425,0,0,1,5.92-6.53,11.507,11.507,0,0,1,15.75,14.28A11.507,11.507,0,1,1,2086.18,2440.81Zm35.5,48.34a15.591,15.591,0,1,0,1.25,22.03A15.483,15.483,0,0,0,2121.68,2489.15Zm-1.81,19.3a11.5,11.5,0,1,1-.92-16.24A11.532,11.532,0,0,1,2119.87,2508.45Zm-53.81-28.73a15.613,15.613,0,1,0-13.75,17.26A15.526,15.526,0,0,0,2066.06,2479.72Zm-14.21,13.19a11.5,11.5,0,1,1-2.6-22.86,11.689,11.689,0,0,1,1.32-.08A11.507,11.507,0,0,1,2051.85,2492.91Zm67.46-24.92a35.148,35.148,0,0,1,1.13,13.25,2.053,2.053,0,0,0,1.83,2.25,1.477,1.477,0,0,0,.21.01,2.048,2.048,0,0,0,2.04-1.83,39.643,39.643,0,0,0-7.41-27.46,2.053,2.053,0,1,0-3.31,2.43A35.09,35.09,0,0,1,2119.31,2467.99Zm-68.81-4.55a1.941,1.941,0,0,0,.87.2,2.062,2.062,0,0,0,1.86-1.18,35.372,35.372,0,0,1,22.45-18.98,2.045,2.045,0,1,0-1.1-3.94,39.468,39.468,0,0,0-25.06,21.18A2.047,2.047,0,0,0,2050.5,2463.44Zm44.3,48.16a35.6,35.6,0,0,1-36.29-10.86,2.048,2.048,0,1,0-3.09,2.69,39.632,39.632,0,0,0,40.48,12.12A2.05,2.05,0,0,0,2094.8,2511.6Z" transform="translate(-2034.94 -2429.06)"/>
</svg>
