<svg xmlns="http://www.w3.org/2000/svg" width="70.78" height="88" viewBox="0 0 70.78 88">
  <defs>
    <style>
      .cls-1 {
        fill: #1b32cd;
        fill-rule: evenodd;
      }
    </style>
  </defs>
  <path id="Cities_Icon" data-name="Cities Icon" class="cls-1" d="M1809.69,1623.97h-5.06v-53.62a1.509,1.509,0,0,0-1.51-1.51h-34.07a1.515,1.515,0,0,0-1.51,1.51v41.5h-5.05a1.519,1.519,0,0,0-1.52,1.52v10.6h-10.98v-81.94h31.04v21.66a1.515,1.515,0,0,0,3.03,0v-23.18a1.515,1.515,0,0,0-1.51-1.51h-34.07a1.509,1.509,0,0,0-1.51,1.51v83.46h-5.06a1.515,1.515,0,0,0,0,3.03h67.78A1.515,1.515,0,0,0,1809.69,1623.97Zm-39.12-52.1h31.04v52.1h-6.14v-13.33a1.517,1.517,0,0,0-1.52-1.51h-14.82a1.517,1.517,0,0,0-1.52,1.51v13.33h-7.04v-52.1Zm17.63,40.29h4.24v11.81h-4.24v-11.81Zm-3.02,11.81h-4.54v-11.81h4.54v11.81Zm-21.18-9.09h3.54v9.09H1764v-9.09Z" transform="translate(-1740.41 -1539)"/>
</svg>
