<svg xmlns="http://www.w3.org/2000/svg" width="87.03" height="87.03" viewBox="0 0 87.03 87.03">
  <defs>
    <style>
      .cls-1 {
        fill: #1b32cd;
        fill-rule: evenodd;
      }
    </style>
  </defs>
  <path id="Startups_Icon" data-name="Startups Icon" class="cls-1" d="M1511.5,1096.49a1.783,1.783,0,0,0-1.7-.45l-10.48,2.79c-25.49,6.63-36.85,18.89-41.89,28-0.38.69-.73,1.36-1.05,2.03a26.135,26.135,0,0,0-12.37,15.5,1.749,1.749,0,0,0,1.71,2.17h0.16l6.73-.59a1.776,1.776,0,0,0,1.84,1.25,0.637,0.637,0,0,1,.07-0.02l-4.3,4.28a4.056,4.056,0,0,0,0,5.74l0.36,0.36a4.092,4.092,0,0,0,5.77,0l4.23-4.21a1.767,1.767,0,0,0,1.61,1.85c0.07,0.01.46,0.04,1.11,0.04,0.22,0,.47-0.01.75-0.02l-0.51,5.79a1.752,1.752,0,0,0,.61,1.48,1.729,1.729,0,0,0,1.14.42,1.535,1.535,0,0,0,.43-0.05,26.138,26.138,0,0,0,15.83-12.82c9.1-5.17,21.07-16.52,27.59-41.4l2.81-10.44A1.747,1.747,0,0,0,1511.5,1096.49Zm-57.43,38.26a36.481,36.481,0,0,0-1.48,7.67l-4.28.37A23.366,23.366,0,0,1,1454.07,1134.75Zm-0.21,20.32a0.576,0.576,0,0,1-.4.16,0.527,0.527,0,0,1-.39-0.16h0l-0.36-.36a0.562,0.562,0,0,1,0-.78l11.65-11.6a0.551,0.551,0,0,1,.4-0.16,0.544,0.544,0,0,1,.39.16l0.36,0.36a0.556,0.556,0,0,1,.16.39,0.541,0.541,0,0,1-.16.39Zm13.43,3.5,0.32-3.68a38.482,38.482,0,0,0,7.67-1.95A24,24,0,0,1,1467.29,1158.57Zm12.23-11.42c-9.16,5.09-16.96,4.55-17.04,4.54a2.09,2.09,0,0,0-.25.01l5.77-5.75a4.056,4.056,0,0,0,0-5.74l-0.36-.36a4.1,4.1,0,0,0-5.77,0l-5.82,5.8a2.166,2.166,0,0,0,.01-0.36c-0.01-.07-0.46-6.2,3.09-14.04a1.783,1.783,0,0,0,.45-0.96c0.28-.58.59-1.17,0.92-1.76,5.87-10.63,17.04-18.9,32.5-24.16l10.56,10.52C1498.33,1130.19,1490.1,1141.27,1479.52,1147.15Zm26.22-39.42c-0.3,1.15-.62,2.28-0.95,3.39l-7.99-7.95c1.12-.33,2.26-0.65,3.42-0.95l7.54-2.01Zm-18.88,13.15a12.361,12.361,0,0,0-17.42,0A12.32,12.32,0,1,0,1486.86,1120.88Zm-2.49,14.86a8.739,8.739,0,1,1,2.57-6.19A8.735,8.735,0,0,1,1484.37,1135.74Zm-54.39,31.87a1.789,1.789,0,0,0,1.25-.51l14.7-14.64a1.756,1.756,0,0,0,0-2.49,1.775,1.775,0,0,0-2.49,0l-14.7,14.65A1.75,1.75,0,0,0,1429.98,1167.61Zm27.91-8.16-14.71,14.64a1.744,1.744,0,0,0,0,2.48,1.8,1.8,0,0,0,1.25.52,1.759,1.759,0,0,0,1.24-.52l14.71-14.64A1.757,1.757,0,1,0,1457.89,1159.45Zm-8.44-1.06a1.765,1.765,0,0,0-2.49.01l-21.48,21.62a1.756,1.756,0,0,0,.02,2.49,1.781,1.781,0,0,0,1.24.5,1.757,1.757,0,0,0,1.25-.52l21.47-21.62A1.744,1.744,0,0,0,1449.45,1158.39Z" transform="translate(-1425 -1095.97)"/>
</svg>
