<svg xmlns="http://www.w3.org/2000/svg" viewBox="0 0 100 81.29"><defs><style>.cls-1{fill:#b5bef9;}</style></defs><title>Recurso 1</title><g id="Capa_2" data-name="Capa 2"><g id="Quotation_End" data-name="Quotation End"><path id="ComillasFinales" class="cls-1" d="M39.68,10.32Q45.16,19,45.16,31.61a52.86,52.86,0,0,1-8.22,29q-8.23,12.92-25,20.65L9,75.48A43.53,43.53,0,0,0,26.29,62.26q7.26-9,7.26-18.39a21.26,21.26,0,0,0-1-6.77,18.4,18.4,0,0,1-11.93,4.19A20.51,20.51,0,0,1,6,35.64Q0,30,0,20.64A19.94,19.94,0,0,1,6,6,19.93,19.93,0,0,1,20.65,0Q33.22,0,39.68,10.32Zm54.84,0Q100,19,100,31.61a52.78,52.78,0,0,1-8.23,29q-8.22,12.92-25,20.65l-2.91-5.81A43.6,43.6,0,0,0,81.13,62.26q7.26-9,7.26-18.39a21.26,21.26,0,0,0-1-6.77,18.4,18.4,0,0,1-11.93,4.19,20.51,20.51,0,0,1-14.68-5.65q-6-5.64-6-15A19.94,19.94,0,0,1,60.81,6,19.93,19.93,0,0,1,75.49,0Q88.06,0,94.52,10.32Z"/></g></g></svg>