<?xml version="1.0" encoding="utf-8"?>
<!-- Generator: Adobe Illustrator 22.0.1, SVG Export Plug-In . SVG Version: 6.00 Build 0)  -->
<svg version="1.1" id="Capa_1" xmlns="http://www.w3.org/2000/svg" xmlns:xlink="http://www.w3.org/1999/xlink" x="0px" y="0px"
	 viewBox="0 0 20 20" style="enable-background:new 0 0 20 20;" xml:space="preserve">
<style type="text/css">
	.st0{fill:#DAD6F7;}
</style>
<title>exit_icon</title>
<g id="Capa_2_1_">
	<g>
		<g id="Exit_8_">
			<path class="st0" d="M17.1,2.9C13.2-1,6.8-1,2.9,2.9s-3.9,10.2,0,14.1s10.2,3.9,14.1,0c0,0,0,0,0,0C21,13.2,21,6.8,17.1,2.9z
				 M12.8,14.2L10,11.4l-2.8,2.8c-0.4,0.4-1.1,0.3-1.4-0.1c-0.3-0.4-0.3-0.9,0-1.3L8.6,10L5.8,7.2C5.4,6.8,5.4,6.1,5.9,5.8
				c0.4-0.3,0.9-0.3,1.3,0L10,8.6l2.8-2.8c0.4-0.4,1.1-0.3,1.4,0.1c0.3,0.4,0.3,0.9,0,1.3L11.4,10l2.8,2.8c0.4,0.4,0.3,1.1-0.1,1.4
				C13.8,14.6,13.2,14.6,12.8,14.2z"/>
		</g>
	</g>
</g>
</svg>
