<svg id="Fire" xmlns="http://www.w3.org/2000/svg" viewBox="0 0 33.34 45"><defs><style>.cls-1{fill:red;}</style></defs><title>Flames</title><path class="cls-1" d="M20.81,44.48c3.11-.18,17.42-2.3,10.8-25.87a.19.19,0,0,0-.36,0c-.17,2.25-.78,7.4-2.82,8a.18.18,0,0,1-.22-.16c-.12-1.23-.95-7.82-5.76-11.7S19.61,2.4,20.85.27A.18.18,0,0,0,20.63,0C18,1,7.6,5.71,6.53,20.3a.19.19,0,0,1-.28.14,6.41,6.41,0,0,1-2.91-4.23A.18.18,0,0,0,3,16.15c-1.67,3-9,18.61,8.18,28.82a.18.18,0,0,0,.23-.27A14.82,14.82,0,0,1,8.25,30.85a.18.18,0,0,1,.34,0,6.27,6.27,0,0,0,3.05,3.55.18.18,0,0,0,.22-.27,8.23,8.23,0,0,1-1-7.8c1.35-4,3.14-5.23,3.91-5.59A.18.18,0,0,1,15,21c-.31.94-.92,3.52,1,5.17,2.26,2,6.42,5.49,6.41,11.69a.18.18,0,0,0,.32.12,6.76,6.76,0,0,0,1.54-4.37.18.18,0,0,1,.35-.05c.6,2,1.25,6.67-3.91,10.64A.18.18,0,0,0,20.81,44.48Z"/></svg>