<?xml version="1.0" encoding="utf-8"?>
<!-- Generator: Adobe Illustrator 22.0.1, SVG Export Plug-In . SVG Version: 6.00 Build 0)  -->
<svg version="1.1" id="PiensaDigital_Logo" xmlns="http://www.w3.org/2000/svg" xmlns:xlink="http://www.w3.org/1999/xlink" x="0px"
	 y="0px" viewBox="0 0 239.6 61.5" style="enable-background:new 0 0 239.6 61.5;" xml:space="preserve">
<style type="text/css">
	.st0{fill:#1A31CA;}
	.st1{fill:#0D1965;}
</style>
<g>
	<g>
		<path class="st0" d="M205,0h-24.9c-0.6,0-1.1,0.5-1.1,1.1V17c0,0.6,0.5,1.1,1.1,1.1h24.7l-4,0.4c-0.2,0-0.2,0.2-0.1,0.3l4.8,4.7
			c0.3,0.3,0.7,0.1,0.7-0.3v-5.2V18V1.1C206.1,0.5,205.6,0,205,0z"/>
		<path class="st0" d="M7.1,26.6H0v34.5h2.3V46.9h4.3c5.5,0,8-2.7,8-8.2V35C14.5,30,12.5,26.6,7.1,26.6z M12.3,38.9
			c0,4.2-1.7,6-5.7,6H2.3V28.7h4.9c3.8,0,5.1,2.4,5.1,6.2V38.9z"/>
		<rect x="18" y="26.6" class="st0" width="2.3" height="34.5"/>
		<polygon class="st0" points="24.2,61.1 37.8,61.1 37.8,59.1 26.5,59.1 26.5,44.7 35.9,44.7 35.9,42.6 26.5,42.6 26.5,28.7 
			37.8,28.7 37.8,26.6 24.2,26.6 		"/>
		<polygon class="st0" points="54.9,55.8 44.5,26.6 41.5,26.6 41.5,61.1 43.6,61.1 43.6,30.4 54.4,61.1 56.9,61.1 56.9,26.6 
			54.9,26.6 		"/>
		<path class="st0" d="M62.9,34.8c0-3.6,1.4-6.4,5.1-6.4c3.7,0,5.1,2.8,5.1,6.4v0.9h2.2V35c0-5-2.1-8.6-7.3-8.6
			c-5.1,0-7.3,3.4-7.3,8.6c0,9.6,12.5,9.8,12.5,18c0,3.7-1.4,6.4-5.2,6.4c-3.8,0-5.2-2.7-5.2-6.4V51h-2.2v1.8c0,5,2.2,8.6,7.4,8.6
			c5.3,0,7.4-3.6,7.4-8.6C75.4,43.3,62.9,43.1,62.9,34.8z"/>
		<path class="st0" d="M86.1,26.6l-7.5,34.5h2.1l1.7-7.6h10.7l1.7,7.6h2.3l-7.7-34.5H86.1z M82.7,51.5l5-22.3l5.1,22.3H82.7z"/>
		<path class="st0" d="M108.6,26.6h-8.1v34.5h8.1c5.4,0,7.8-3.3,7.8-8.5V35.2C116.5,29.9,114,26.6,108.6,26.6z M112.7,52.8
			c0,3.2-1.3,4.9-4.1,4.9h-4.2V30.1h4.1c2.8,0,4.1,1.7,4.1,4.9V52.8z"/>
		<rect x="120.1" y="26.6" class="st0" width="3.8" height="34.5"/>
		<path class="st0" d="M135.3,26.3c-5.3,0-7.7,3.4-7.7,8.7v17.8c0,5.2,2.5,8.7,7.7,8.7c5.3,0,7.8-3.5,7.8-8.7V42.7h-7.2v3.4h3.5V53
			c0,3.1-1.2,5-4,5c-2.8,0-4-1.9-4-5V34.8c0-3.1,1.3-5,4-5c2.8,0,4,1.9,4,5v3.2h3.6v-3C143.1,29.7,140.6,26.3,135.3,26.3z"/>
		<rect x="146.7" y="26.6" class="st0" width="3.8" height="34.5"/>
		<polygon class="st0" points="169.7,26.6 153.2,26.6 153.2,30.1 159.5,30.1 159.5,61.1 163.4,61.1 163.4,30.1 169.7,30.1 		"/>
		<path class="st0" d="M176.1,26.6l-6.6,34.5h3.5l1.3-6.9h8.7l1.3,6.9h3.8l-6.6-34.5H176.1z M174.9,50.9l3.8-19.9l3.9,19.9H174.9z"
			/>
		<polygon class="st0" points="195.2,26.6 191.3,26.6 191.3,61.1 205,61.1 205,57.6 195.2,57.6 		"/>
	</g>
	<g>
		<path class="st1" d="M216.9,59c0,1.4-1,2.1-3,2.1h-3.7v-8h3.5c1.8,0,2.8,0.8,2.8,2.1c0,0.9-0.5,1.5-1.2,1.8
			C216.3,57.2,216.9,57.9,216.9,59z M211.1,53.8v2.9h2.6c1.3,0,2-0.5,2-1.5s-0.7-1.5-2-1.5H211.1z M216.1,58.9c0-1-0.8-1.5-2.2-1.5
			h-2.8v3h2.8C215.3,60.4,216.1,60,216.1,58.9z"/>
		<path class="st1" d="M224.5,60.4v0.7h-5.7v-8h5.5v0.7h-4.7v2.9h4.2v0.7h-4.2v3H224.5z"/>
		<path class="st1" d="M228.1,53.8h-2.8v-0.7h6.5v0.7H229v7.3h-0.8V53.8z"/>
		<path class="st1" d="M237.8,59h-4.5l-1,2.1h-0.9l3.7-8h0.8l3.7,8h-0.9L237.8,59z M237.5,58.3l-1.9-4.3l-1.9,4.3H237.5z"/>
	</g>
</g>
</svg>
