<?xml version="1.0" encoding="utf-8"?>
<!-- Generator: Adobe Illustrator 22.0.1, SVG Export Plug-In . SVG Version: 6.00 Build 0)  -->
<svg version="1.1" id="PiensaDigital_Logo" xmlns="http://www.w3.org/2000/svg" xmlns:xlink="http://www.w3.org/1999/xlink" x="0px"
	 y="0px" viewBox="0 0 240 71.6" style="enable-background:new 0 0 240 71.6;" xml:space="preserve">
<style type="text/css">
	.st0{fill:#1A31CA;}
</style>
<g>
	<path class="st0" d="M238.7,0h-29c-0.7,0-1.3,0.6-1.3,1.3v18.5c0,0.7,0.6,1.3,1.3,1.3h27.8c0.1,0,0.2,0.2,0,0.2l-3,1
		c-0.2,0-0.3,0.2-0.1,0.4l4.8,4.8c0.3,0.3,0.8,0.1,0.8-0.3v-6.1v-0.2V1.3C240,0.6,239.4,0,238.7,0z"/>
	<path class="st0" d="M8.3,31H0v40.2h2.6V54.7h5c6.4,0,9.3-3.2,9.3-9.5v-4.4C16.9,34.9,14.5,31,8.3,31z M14.3,45.3
		c0,4.9-2,6.9-6.7,6.9h-5V33.4h5.7c4.5,0,6,2.8,6,7.2V45.3z"/>
	<rect x="21" y="31" class="st0" width="2.6" height="40.2"/>
	<polygon class="st0" points="28.2,71.2 44.1,71.2 44.1,68.8 30.9,68.8 30.9,52 41.8,52 41.8,49.6 30.9,49.6 30.9,33.4 44.1,33.4 
		44.1,31 28.2,31 	"/>
	<polygon class="st0" points="63.9,64.9 51.8,31 48.4,31 48.4,71.2 50.8,71.2 50.8,35.4 63.3,71.2 66.3,71.2 66.3,31 63.9,31 	"/>
	<path class="st0" d="M73.3,40.5c0-4.2,1.6-7.4,6-7.4s6,3.2,6,7.5v1h2.5v-0.9c0-5.8-2.5-10-8.5-10c-5.9,0.1-8.5,4-8.5,10
		c0,11.2,14.5,11.4,14.5,21c0,4.3-1.7,7.4-6.1,7.4c-4.4,0-6.1-3.1-6.1-7.4v-2.2h-2.5v2.1c0,5.8,2.5,10,8.7,10c6.1,0,8.7-4.2,8.7-10
		C87.8,50.4,73.3,50.2,73.3,40.5z"/>
	<path class="st0" d="M100.2,31l-8.8,40.2h2.4l2-8.9h12.5l2,8.9h2.6l-9-40.2H100.2z M96.3,60l5.8-26l5.9,26H96.3z"/>
	<path class="st0" d="M126.5,31h-9.4v40.2h9.4c6.3,0,9.1-3.8,9.1-9.9V41C135.6,34.8,132.7,31,126.5,31z M131.2,61.4
		c0,3.7-1.5,5.7-4.8,5.7h-4.9v-32h4.8c3.3,0,4.8,2,4.8,5.7V61.4z"/>
	<rect x="139.8" y="31" class="st0" width="4.5" height="40.2"/>
	<path class="st0" d="M157.5,30.6c-6.1,0-9,4-9,10.1v20.8c0,6.1,2.9,10.1,9,10.1c6.2,0,9.1-4,9.1-10.1V49.7h-8.4v4h4.1v8
		c0,3.6-1.4,5.8-4.7,5.8c-3.2,0-4.7-2.2-4.7-5.8V40.5c0-3.6,1.5-5.8,4.7-5.8c3.3,0,4.7,2.2,4.7,5.8v3.7h4.2v-3.4
		C166.6,34.6,163.7,30.6,157.5,30.6z"/>
	<rect x="170.8" y="31" class="st0" width="4.5" height="40.2"/>
	<polygon class="st0" points="197.6,31 178.3,31 178.3,35.1 185.7,35.1 185.7,71.2 190.2,71.2 190.2,35.1 197.6,35.1 	"/>
	<path class="st0" d="M205.1,31l-7.7,40.2h4.1l1.5-8.1h10.2l1.5,8.1h4.5L211.6,31H205.1z M203.6,59.2l4.4-23.2l4.5,23.2H203.6z"/>
	<polygon class="st0" points="227.2,31 222.7,31 222.7,71.2 238.7,71.2 238.7,67.1 227.2,67.1 	"/>
</g>
</svg>
