<svg xmlns="http://www.w3.org/2000/svg" viewBox="0 0 100 81.29"><defs><style>.cls-1{fill:#b5bef9;}</style></defs><title>Recurso 2</title><g id="Capa_2" data-name="Capa 2"><g id="Quotation_Start" data-name="Quotation Start"><path id="ComillasIniciales" class="cls-1" d="M5.48,71Q0,62.26,0,49.68a52.87,52.87,0,0,1,8.23-29Q16.45,7.76,33.23,0l2.9,5.8A43.64,43.64,0,0,0,18.87,19q-7.26,9-7.26,18.39a21.54,21.54,0,0,0,1,6.77A18.41,18.41,0,0,1,24.52,40,20.64,20.64,0,0,1,39.2,45.64q6,5.65,6,15a20,20,0,0,1-6,14.68,20,20,0,0,1-14.68,6Q11.93,81.29,5.48,71Zm54.84,0q-5.48-8.72-5.48-21.29a52.87,52.87,0,0,1,8.23-29Q71.29,7.76,88.07,0L91,5.8A43.64,43.64,0,0,0,73.71,19q-7.26,9-7.26,18.39a21.54,21.54,0,0,0,1,6.77A18.41,18.41,0,0,1,79.36,40,20.6,20.6,0,0,1,94,45.64q6,5.65,6,15A20.39,20.39,0,0,1,79.36,81.29Q66.78,81.29,60.32,71Z"/></g></g></svg>